<svg xmlns="http://www.w3.org/2000/svg" width="96" height="96" viewBox="0 0 25.4 25.4" id="shop">
    <style>
        path {
        fill: black;
        }
        @media (prefers-color-scheme: dark) {
        path { fill: white; }
        }
    </style>
    <path fill-rule="evenodd"
        d="m 28,6 c -2.203001,0 -3.958222,0.3772156 -5.441406,1.2167969 -1.483185,0.8395812 -2.581661,1.9781436 -3.972656,3.3691411 l -4,4 C 14.210865,14.960961 14.000102,15.469602 14,16 v 1.996094 h -1.996094 c -3.2894047,0 -6.0019529,2.712547 -6.0019529,6.001953 V 24 H 6 v 8 c 0,4.820647 3.4467167,8.867016 8,9.798828 v 36.197266 h -1.996094 c -3.2894059,0 -6.0019529,2.712551 -6.0019529,6.001953 C 6.0019531,87.287453 8.7145001,90 12.003906,90 H 83.998047 C 87.287457,90 90,87.287457 90,83.998047 90,80.708645 87.287457,77.996094 83.998047,77.996094 H 82 V 41.798828 C 86.553282,40.867016 90,36.820647 90,32 V 23.998047 C 90,20.70864 87.287453,17.996094 83.998047,17.996094 H 82 V 16 c -1.02e-4,-0.530398 -0.210865,-1.039039 -0.585938,-1.414062 l -4,-4 C 75.888048,9.0599252 74.799852,7.9214525 73.324219,7.1054688 71.848585,6.289485 70.157997,6 68,6 Z m 0,4 h 40 c 1.842006,0 2.625359,0.18446 3.386719,0.605469 0.761359,0.42101 1.673208,1.282581 3.199219,2.808593 L 78,16.828125 v 1.167969 H 18 v -1.167969 l 3.414062,-3.414063 C 22.805059,12.023066 23.70798,11.162185 24.529297,10.697266 25.350614,10.232344 26.203001,10 28,10 Z M 12.003906,21.998047 h 71.994141 c 1.142596,0 2,0.857406 2,2 0,1.142593 -0.857404,2 -2,2 H 12.003906 c -1.142594,0 -2.001953,-0.857406 -2.001953,-2 0,-1.142595 0.859359,-2 2.001953,-2 z M 10,29.644531 C 10.628681,29.870839 11.301881,30 12.003906,30 h 9.994141 L 22,32.019531 C 22.003239,35.36874 19.35201,38 16,38 12.641406,38 10,35.358593 10,32 Z m 76,0 V 32 c 0,3.358593 -2.64141,6 -6,6 -3.345392,0 -6.001246,-2.62113 -5.998047,-5.960938 L 74.003906,30 h 9.994141 C 84.699431,30 85.371808,29.870445 86,29.644531 Z M 26,30 h 12.001953 v 2 c 0,3.358593 -2.643358,6.001953 -6.001953,6.001953 -3.352011,0 -6.005192,-2.633207 -6.001953,-5.982422 z m 16.003906,0 h 11.994141 v 2 c 0,3.358593 -2.643359,6.001953 -6.001953,6.001953 -3.358598,0 -5.992188,-2.64336 -5.992188,-6.001953 z M 58,30 h 12 l 0.002,2.019531 c 0.0032,3.349212 -2.647992,5.982418 -6,5.982422 C 60.643355,38.001953 58,35.358593 58,32 Z m -34,7.96875 c 1.827584,2.440873 4.730887,4.035156 8,4.035156 3.268905,0 6.172395,-1.594547 8,-4.035156 1.825447,2.441139 4.72677,4.035156 7.996094,4.035156 3.26953,0 6.176367,-1.593752 8.003906,-4.035156 1.827584,2.440873 4.732839,4.035156 8.001953,4.035156 3.268555,0 6.172358,-1.593038 8,-4.033203 1.44418,1.927828 3.558015,3.328782 5.998047,3.828125 V 77.996094 H 62 V 55.998047 c 0,-3.289406 -2.712547,-6 -6.001953,-6 H 40.001953 c -3.289404,0 -6,2.710594 -6,6 V 77.996094 H 18 V 41.798828 c 2.440956,-0.499532 4.555787,-1.901115 6,-3.830078 z m 16.001953,16.029297 h 15.996094 c 1.142596,0 2.001953,0.857403 2.001953,2 V 77.996094 H 38.001953 V 55.998047 c 0,-1.142597 0.857407,-2 2,-2 z m -27.998047,28 h 71.994141 c 1.142596,0 2,0.857411 2,2 0,1.142596 -0.857404,2 -2,2 H 12.003906 c -1.142593,0 -2.001953,-0.857404 -2.001953,-2 0,-1.142589 0.85936,-2 2.001953,-2 z"
        color="#000" font-family="sans-serif" font-weight="400" overflow="visible"
        paint-order="stroke fill markers" transform="scale(.26458)"
        style="line-height:normal;font-variant-ligatures:normal;font-variant-position:normal;font-variant-caps:normal;font-variant-numeric:normal;font-variant-alternates:normal;font-feature-settings:normal;text-indent:0;text-align:start;text-decoration-line:none;text-decoration-style:solid;text-decoration-color:#000;text-transform:none;text-orientation:mixed;shape-padding:0;isolation:auto;mix-blend-mode:normal"></path>
</svg>